<svg xmlns="http://www.w3.org/2000/svg" viewBox="0 0 500 500"><defs><style>.cls-1{fill:#ba9bc9;}.cls-2{fill:#f9f9f9;}</style></defs><g id="Layer_2" data-name="Layer 2"><path class="cls-1" d="M249.23,249.34v0a128.48,128.48,0,0,1-.1-13.92,161.57,161.57,0,0,1,5-32.22,127.81,127.81,0,0,1,12.5-31.41,125.26,125.26,0,0,1,26.46-31.89c9.88-8.59,31.94-27.78,62.42-31,12-1.26,23.34.2,43.75-4.11a175,175,0,0,0,30-9.2h0a122.57,122.57,0,0,0-24.92,32.18c-8.62,16.27-7.83,24.28-17.91,35.32-8.88,9.73-19.05,14-27.58,17.42a79.81,79.81,0,0,1-13.39,4.2c-16.32,3.51-25.63,3.44-34.51,4.51-20.26,2.44-39.62,14.08-50.58,28.23C248,233.63,249.23,249.31,249.23,249.34Z"/><path class="cls-1" d="M249.24,249.86a.51.51,0,0,1-.5-.46h0a2.79,2.79,0,0,1,0-.44,122.92,122.92,0,0,1-.06-13.54,162.26,162.26,0,0,1,5-32.32,120.86,120.86,0,0,1,39.11-63.54c9.59-8.35,32.06-27.89,62.69-31.09,4-.42,7.91-.54,12.06-.67a163.56,163.56,0,0,0,31.65-3.42,176.4,176.4,0,0,0,29.95-9.18.49.49,0,0,1,.61.19.5.5,0,0,1-.08.63,123.36,123.36,0,0,0-24.82,32.05,128.31,128.31,0,0,0-7,16c-2.68,7.08-4.79,12.67-11,19.45-9.14,10-19.9,14.36-27.76,17.54a81.63,81.63,0,0,1-13.47,4.23A189.75,189.75,0,0,1,318.81,189c-2.7.22-5.25.44-7.74.74-19.12,2.3-38.84,13.3-50.24,28-11.15,14.39-11.21,28.55-11.12,31.08v.18a.91.91,0,0,1,0,.17v.05h0c0,.25-.08.53-.45.56ZM427.11,97.06a176.39,176.39,0,0,1-27.72,8.28,163.59,163.59,0,0,1-31.83,3.45c-4.13.13-8,.25-12,.66C325.26,112.62,303,132,293.44,140.3a126.28,126.28,0,0,0-26.35,31.76,127.83,127.83,0,0,0-12.46,31.29,162.48,162.48,0,0,0-5,32.11c-.08,1.51-.13,3.12-.14,4.81A54.09,54.09,0,0,1,260,217.2c11.56-14.93,31.54-26.08,50.91-28.42,2.51-.3,5.07-.51,7.77-.74a188.64,188.64,0,0,0,26.7-3.76,80.86,80.86,0,0,0,13.31-4.17c7.77-3.15,18.41-7.45,27.39-17.3,6.06-6.63,8.14-12.14,10.78-19.12a128.74,128.74,0,0,1,7.06-16.1A123.63,123.63,0,0,1,427.11,97.06Z"/><path class="cls-1" d="M249.22,249.36h0a125.15,125.15,0,0,1-9.91-9.78,160.27,160.27,0,0,1-19.24-26.31,127.76,127.76,0,0,1-13.37-31.06A125.06,125.06,0,0,1,202.88,141c.91-13.06,2.94-42.24,22.23-66,7.63-9.41,16.65-16.37,28-33.84a175.37,175.37,0,0,0,14.73-27.75h0A122.81,122.81,0,0,0,273,53.71c5.41,17.61,11.63,22.7,12.31,37.64.6,13.16-3.59,23.35-7.18,31.82a80,80,0,0,1-6.5,12.44c-9.06,14-15.7,20.56-21.22,27.59-12.6,16.05-18.06,38-15.8,55.73C237.21,239.14,249.2,249.34,249.22,249.36Z"/><path class="cls-1" d="M249.24,249.86a.5.5,0,0,1-.33-.12h0l-.47-.42a128,128,0,0,1-9.48-9.4,163.63,163.63,0,0,1-19.3-26.41,128.71,128.71,0,0,1-13.42-31.16,127.6,127.6,0,0,1-3.85-41.42c.88-12.69,3-42.4,22.35-66.32,2.52-3.11,5.21-6,8.05-9a163.91,163.91,0,0,0,20-24.81,176.31,176.31,0,0,0,14.68-27.66.51.51,0,0,1,.57-.3.5.5,0,0,1,.39.51,123.77,123.77,0,0,0,5.11,40.21,129.56,129.56,0,0,0,6.35,16.25c3.11,6.89,5.58,12.34,6,21.51.62,13.54-3.91,24.23-7.22,32a81.48,81.48,0,0,1-6.54,12.52,190.32,190.32,0,0,1-16.29,21.64c-1.75,2.06-3.4,4-4.95,6-11.89,15.14-18.05,36.87-15.7,55.35,2.3,18.08,12.29,28.14,14.13,29.85l.12.11.13.12,0,0h0a.48.48,0,0,1,.08.71A.52.52,0,0,1,249.24,249.86Zm18.09-234a177,177,0,0,1-13.76,25.46A164.25,164.25,0,0,1,233.51,66.3c-2.83,3-5.5,5.86-8,8.94C206.31,98.92,204.25,128.4,203.37,141a126.34,126.34,0,0,0,3.83,41.08A127.37,127.37,0,0,0,220.52,213a161.92,161.92,0,0,0,19.18,26.23c1,1.08,2,2.21,3.15,3.35A53.92,53.92,0,0,1,234.14,219c-2.39-18.73,3.85-40.75,15.9-56.1,1.56-2,3.22-3.94,5-6a188.55,188.55,0,0,0,16.22-21.53A80.87,80.87,0,0,0,277.69,123c3.27-7.71,7.75-18.28,7.14-31.6-.4-9-2.83-14.34-5.9-21.14a128.24,128.24,0,0,1-6.39-16.37A123.23,123.23,0,0,1,267.33,15.9Z"/><path class="cls-1" d="M249.22,249.3h0a133.12,133.12,0,0,1-13.92.09,160.78,160.78,0,0,1-32.22-5,127.81,127.81,0,0,1-31.41-12.5,125.39,125.39,0,0,1-31.88-26.45c-8.6-9.88-27.79-32-31-62.42-1.26-12,.2-23.35-4.1-43.76a175.77,175.77,0,0,0-9.21-30h0A123,123,0,0,0,127.7,94.14C144,102.76,152,102,163,112c9.73,8.89,14,19,17.42,27.58a80.09,80.09,0,0,1,4.2,13.39c3.51,16.32,3.44,25.64,4.51,34.51,2.44,20.26,14.08,39.62,28.23,50.58C233.5,250.58,249.19,249.3,249.22,249.3Z"/><path class="cls-1" d="M241.13,250c-2.06,0-4,0-5.85-.15a164,164,0,0,1-32.32-5,128.6,128.6,0,0,1-31.52-12.55,127.4,127.4,0,0,1-32-26.57c-8.35-9.59-27.89-32.06-31.09-62.69-.41-4-.54-7.91-.66-12.06a163.61,163.61,0,0,0-3.43-31.64,175.85,175.85,0,0,0-9.18-29.95.5.5,0,0,1,.83-.53,123.66,123.66,0,0,0,32,24.81,127.72,127.72,0,0,0,16,7c7.08,2.67,12.67,4.78,19.45,11,10,9.14,14.37,19.91,17.55,27.76a81.84,81.84,0,0,1,4.22,13.47,189.86,189.86,0,0,1,3.78,26.83c.23,2.69.44,5.24.74,7.73,2.3,19.12,13.31,38.84,28,50.25,14.39,11.14,28.55,11.2,31.09,11.11H249a1.36,1.36,0,0,1,.18,0h0c.25,0,.53.08.56.45a.52.52,0,0,1-.45.54h0l-.45,0C246.23,250,243.62,250,241.13,250ZM96.94,71.42a177.69,177.69,0,0,1,8.28,27.73A164.3,164.3,0,0,1,108.67,131c.12,4.13.24,8,.66,12,3.16,30.31,22.56,52.61,30.84,62.14a126.49,126.49,0,0,0,31.76,26.35,127.85,127.85,0,0,0,31.29,12.45,161.85,161.85,0,0,0,32.12,5c1.5.08,3.12.13,4.8.15a54.31,54.31,0,0,1-23.06-10.54C202.14,226.94,191,207,188.66,187.58c-.31-2.51-.52-5.06-.74-7.77a189.32,189.32,0,0,0-3.77-26.7,79.82,79.82,0,0,0-4.17-13.3c-3.14-7.77-7.45-18.41-17.29-27.4-6.64-6.06-12.15-8.14-19.13-10.78a128.43,128.43,0,0,1-16.09-7A123.3,123.3,0,0,1,96.94,71.42Z"/><path class="cls-1" d="M249.23,249.39h0a131.38,131.38,0,0,1-9.78,9.91,162,162,0,0,1-26.32,19.24,128.62,128.62,0,0,1-31,13.37,125.43,125.43,0,0,1-41.26,3.84c-13.06-.91-42.23-2.95-66-22.24-9.41-7.63-16.37-16.65-33.84-28a174.94,174.94,0,0,0-27.75-14.73h0a123,123,0,0,0,40.38-5.13c17.6-5.42,22.7-11.64,37.63-12.32,13.17-.6,23.35,3.59,31.82,7.18a81.32,81.32,0,0,1,12.44,6.5c14,9.06,20.56,15.7,27.59,21.22,16.05,12.6,38,18.06,55.73,15.8C239,261.41,249.21,249.41,249.23,249.39Z"/><path class="cls-1" d="M149.76,296.54q-4.5,0-9-.3c-12.69-.89-42.39-3-66.32-22.35-3.11-2.53-6-5.22-9-8.06a163.16,163.16,0,0,0-24.8-19.95A176.07,176.07,0,0,0,13,231.19a.46.46,0,0,1-.34-.54.56.56,0,0,1,.55-.42,123.23,123.23,0,0,0,40.21-5.11,128,128,0,0,0,16.25-6.35c6.9-3.11,12.35-5.57,21.51-6,13.55-.61,24.23,3.92,32,7.22a81.36,81.36,0,0,1,12.51,6.54,190.19,190.19,0,0,1,21.64,16.3c2.07,1.74,4,3.4,6,4.94,15.15,11.89,36.88,18,55.36,15.7,18.08-2.3,28.13-12.28,29.84-14.12l.12-.13.11-.13,0,0h0a.48.48,0,0,1,.71-.08.52.52,0,0,1,.05.72h0s-.14.17-.35.39a124.47,124.47,0,0,1-9.47,9.56,163.7,163.7,0,0,1-26.4,19.3,128.64,128.64,0,0,1-31.17,13.42A125.12,125.12,0,0,1,149.76,296.54Zm-134-65.25A174.78,174.78,0,0,1,41.23,245a164.41,164.41,0,0,1,25,20.06c3,2.83,5.85,5.51,8.93,8,23.68,19.2,53.17,21.25,65.76,22.13A126.29,126.29,0,0,0,182,291.41a127.37,127.37,0,0,0,30.94-13.32,161.92,161.92,0,0,0,26.23-19.18c1.1-1,2.25-2.06,3.42-3.21a54.21,54.21,0,0,1-23.68,8.78c-18.73,2.38-40.75-3.86-56.1-15.91-2-1.56-3.94-3.22-6-5a189.74,189.74,0,0,0-21.54-16.22,81.22,81.22,0,0,0-12.36-6.46c-7.72-3.27-18.3-7.75-31.6-7.14-9,.41-14.35,2.83-21.15,5.9a127.65,127.65,0,0,1-16.37,6.39A123.56,123.56,0,0,1,15.76,231.29Z"/><path class="cls-1" d="M249.27,249.37v0a128.7,128.7,0,0,1,.1,13.93,161.56,161.56,0,0,1-5,32.21,128.07,128.07,0,0,1-12.5,31.41,125.08,125.08,0,0,1-26.46,31.89c-9.88,8.59-31.94,27.78-62.42,31-12,1.25-23.34-.2-43.75,4.1a175.62,175.62,0,0,0-30,9.2h0A122.55,122.55,0,0,0,94.1,370.89c8.62-16.28,7.83-24.29,17.91-35.33,8.88-9.73,19-14,27.58-17.42a80.74,80.74,0,0,1,13.39-4.2c16.32-3.51,25.63-3.44,34.51-4.51,20.26-2.44,39.62-14.07,50.58-28.23C250.54,265.09,249.27,249.4,249.27,249.37Z"/><path class="cls-1" d="M69.19,403.56a.51.51,0,0,1-.43-.23.5.5,0,0,1,.08-.63,123.36,123.36,0,0,0,24.82-32.05,127.67,127.67,0,0,0,7-16c2.68-7.08,4.79-12.67,11-19.44,9.14-10,19.9-14.37,27.76-17.55a81.92,81.92,0,0,1,13.47-4.23,191.25,191.25,0,0,1,26.82-3.78c2.7-.22,5.25-.43,7.74-.73,19.12-2.3,38.84-13.31,50.24-28,11.15-14.4,11.21-28.56,11.12-31.09v-.18a.91.91,0,0,1,0-.17v-.05h0c0-.25.08-.53.45-.55a.49.49,0,0,1,.54.45h0s0,.17,0,.44a125.62,125.62,0,0,1,.06,13.55,162.12,162.12,0,0,1-5,32.31,128.21,128.21,0,0,1-12.55,31.53,127.32,127.32,0,0,1-26.56,32c-9.59,8.34-32.06,27.88-62.69,31.08-4,.42-7.91.54-12.06.67a162.91,162.91,0,0,0-31.65,3.43,175.23,175.23,0,0,0-29.95,9.18A.57.57,0,0,1,69.19,403.56ZM249,258.45a54.18,54.18,0,0,1-10.54,23.06c-11.56,14.93-31.54,26.09-50.91,28.42-2.51.3-5.07.52-7.78.74a188.73,188.73,0,0,0-26.69,3.76,80,80,0,0,0-13.31,4.18c-7.76,3.14-18.4,7.44-27.39,17.29-6.06,6.63-8.14,12.15-10.78,19.13a127.85,127.85,0,0,1-7.06,16.09,123.63,123.63,0,0,1-23.15,30.53,175.13,175.13,0,0,1,27.72-8.28,164.39,164.39,0,0,1,31.83-3.45c4.13-.13,8-.25,12-.66,30.32-3.17,52.62-22.56,62.14-30.85a126.2,126.2,0,0,0,26.35-31.75,127.86,127.86,0,0,0,12.46-31.3,162.34,162.34,0,0,0,5-32.11C248.94,261.75,249,260.13,249,258.45Z"/><path class="cls-1" d="M249.28,249.36h0a129.16,129.16,0,0,1,9.91,9.78,161.49,161.49,0,0,1,19.24,26.32,127.86,127.86,0,0,1,13.37,31.05,125.06,125.06,0,0,1,3.84,41.25c-.91,13.07-2.94,42.24-22.24,66-7.63,9.4-16.65,16.36-28,33.84a176.2,176.2,0,0,0-14.73,27.74h0A122.59,122.59,0,0,0,225.49,445c-5.41-17.6-11.64-22.7-12.32-37.64-.6-13.16,3.6-23.35,7.19-31.82a79.88,79.88,0,0,1,6.5-12.43c9-14,15.69-20.57,21.21-27.6,12.6-16.05,18.06-38,15.8-55.72C261.3,259.57,249.3,249.38,249.28,249.36Z"/><path class="cls-1" d="M230.62,485.91h-.08a.52.52,0,0,1-.42-.54A123.16,123.16,0,0,0,225,445.15a127.58,127.58,0,0,0-6.34-16.25c-3.12-6.9-5.58-12.35-6-21.51-.61-13.55,3.92-24.24,7.23-32a80.21,80.21,0,0,1,6.54-12.52,189.14,189.14,0,0,1,16.29-21.64c1.75-2.06,3.4-4,5-6,11.89-15.14,18.05-36.87,15.7-55.35-2.3-18.09-12.29-28.13-14.13-29.85l-.13-.11-.12-.12,0,0h0a.49.49,0,0,1-.07-.72.52.52,0,0,1,.71-.05h0l.4.36a122.46,122.46,0,0,1,9.55,9.47,162.65,162.65,0,0,1,19.3,26.4,120.93,120.93,0,0,1,17.28,72.59c-.88,12.68-2.95,42.39-22.35,66.31-2.53,3.12-5.21,6-8,9a163.18,163.18,0,0,0-20,24.81,175.19,175.19,0,0,0-14.69,27.67A.45.45,0,0,1,230.62,485.91ZM255.6,256a54.26,54.26,0,0,1,8.77,23.68c2.38,18.74-3.86,40.76-15.91,56.1-1.56,2-3.21,3.95-5,6a187.78,187.78,0,0,0-16.21,21.54,79.87,79.87,0,0,0-6.46,12.36c-3.27,7.71-7.75,18.28-7.15,31.6.41,9,2.84,14.35,5.91,21.15A130.46,130.46,0,0,1,226,444.85a123.29,123.29,0,0,1,5.21,38,177.25,177.25,0,0,1,13.75-25.47A163.59,163.59,0,0,1,265,432.41c2.83-3,5.5-5.85,8-8.94,19.2-23.68,21.25-53.16,22.13-65.75a126.35,126.35,0,0,0-3.82-41.09A127.84,127.84,0,0,0,278,285.7a162.1,162.1,0,0,0-19.18-26.24C257.83,258.37,256.75,257.22,255.6,256Z"/><path class="cls-1" d="M249.25,249.38h0a133.27,133.27,0,0,1,13.93-.09,160.76,160.76,0,0,1,32.21,5,127.81,127.81,0,0,1,31.41,12.5,125.18,125.18,0,0,1,31.89,26.45c8.59,9.88,27.78,31.95,31,62.42,1.26,12.05-.2,23.35,4.11,43.76a175,175,0,0,0,9.2,30h0a123,123,0,0,0-32.18-24.92c-16.27-8.62-24.28-7.82-35.32-17.9-9.73-8.88-14-19.05-17.42-27.58a80.09,80.09,0,0,1-4.2-13.39c-3.51-16.32-3.44-25.64-4.51-34.51-2.44-20.26-14.08-39.62-28.23-50.58C265,248.1,249.28,249.38,249.25,249.38Z"/><path class="cls-1" d="M402.94,430a.49.49,0,0,1-.36-.15A123.36,123.36,0,0,0,370.53,405a129.44,129.44,0,0,0-16-7c-7.08-2.67-12.67-4.78-19.45-11-10-9.14-14.36-19.9-17.54-27.76a81.63,81.63,0,0,1-4.23-13.47A189.86,189.86,0,0,1,309.55,319c-.22-2.69-.43-5.24-.73-7.73-2.31-19.12-13.31-38.84-28.05-50.25-14.39-11.14-28.54-11.2-31.08-11.11h-.18a1,1,0,0,1-.17,0h-.05c-.25,0-.53-.09-.56-.46a.52.52,0,0,1,.46-.54h0l.44,0a125.58,125.58,0,0,1,13.54-.07,163.68,163.68,0,0,1,32.32,5A128.78,128.78,0,0,1,327,266.36a127.18,127.18,0,0,1,32,26.57c8.35,9.59,27.89,32.06,31.09,62.69.42,4,.54,7.91.67,12.06a163,163,0,0,0,3.43,31.65,175.09,175.09,0,0,0,9.17,29.94.5.5,0,0,1-.19.61A.45.45,0,0,1,402.94,430ZM258.33,249.64a54.31,54.31,0,0,1,23.06,10.54c14.93,11.56,26.09,31.55,28.42,50.92.3,2.51.51,5.07.74,7.77a188.83,188.83,0,0,0,3.76,26.7,79.61,79.61,0,0,0,4.18,13.3c3.14,7.77,7.44,18.41,17.29,27.4,6.63,6.06,12.15,8.14,19.13,10.78A129.07,129.07,0,0,1,371,404.1a123.67,123.67,0,0,1,30.53,23.16,176.19,176.19,0,0,1-8.28-27.73,163.51,163.51,0,0,1-3.45-31.82c-.13-4.13-.25-8-.66-12-3.17-30.31-22.57-52.61-30.85-62.14a119.89,119.89,0,0,0-63.05-38.8,161.56,161.56,0,0,0-32.11-5C261.63,249.71,260,249.66,258.33,249.64Z"/><path class="cls-1" d="M249.24,249.32h0a129.16,129.16,0,0,1,9.78-9.91,161.49,161.49,0,0,1,26.32-19.24,127.86,127.86,0,0,1,31.05-13.37A125.35,125.35,0,0,1,357.63,203c13.06.91,42.24,2.95,66,22.24,9.4,7.63,16.36,16.65,33.84,28A175.35,175.35,0,0,0,485.25,268h0a122.59,122.59,0,0,0-40.37,5.13c-17.6,5.41-22.7,11.64-37.64,12.32-13.16.6-23.35-3.6-31.82-7.18a81.79,81.79,0,0,1-12.44-6.5c-14-9.06-20.56-15.7-27.59-21.22-16.05-12.6-38-18.06-55.73-15.8C259.45,237.3,249.26,249.3,249.24,249.32Z"/><path class="cls-1" d="M404.77,286c-12.37,0-22.22-4.18-29.54-7.28a82,82,0,0,1-12.52-6.54,190.19,190.19,0,0,1-21.64-16.3c-2.06-1.75-4-3.4-6-5-15.14-11.88-36.88-18-55.35-15.69-18.09,2.3-28.14,12.28-29.85,14.12l-.11.13-.12.13,0,0h0c-.19.17-.43.32-.72.07a.51.51,0,0,1-.05-.71h0l.36-.39a124.44,124.44,0,0,1,9.46-9.56,162.78,162.78,0,0,1,26.41-19.3,128.64,128.64,0,0,1,31.17-13.42,127.22,127.22,0,0,1,41.42-3.86c12.68.89,42.39,3,66.31,22.35,3.11,2.53,6,5.22,9,8.06a163.84,163.84,0,0,0,24.81,20,176,176,0,0,0,27.66,14.69.49.49,0,0,1,.3.57.53.53,0,0,1-.5.39A123.46,123.46,0,0,0,445,273.59a127.43,127.43,0,0,0-16.25,6.35c-6.9,3.11-12.35,5.57-21.52,6Q406,286,404.77,286Zm-117-52.26c16.71,0,34.81,6.07,48,16.41,2,1.56,3.95,3.22,6,5a188.83,188.83,0,0,0,21.54,16.22,80.29,80.29,0,0,0,12.36,6.46c7.71,3.27,18.29,7.74,31.6,7.14,9-.41,14.34-2.83,21.14-5.9a129.6,129.6,0,0,1,16.37-6.4,123.79,123.79,0,0,1,38-5.21,176.47,176.47,0,0,1-25.46-13.75,164.25,164.25,0,0,1-24.94-20.06c-3-2.83-5.85-5.51-8.94-8-23.67-19.2-53.16-21.25-65.75-22.13a120,120,0,0,0-72,17.15,162.1,162.1,0,0,0-26.24,19.18c-1.1,1-2.25,2.06-3.42,3.21a54.21,54.21,0,0,1,23.68-8.78A65.81,65.81,0,0,1,287.72,233.73Zm-38.1,15.91h0Z"/><path class="cls-2" d="M267.88,12.85a288.62,288.62,0,0,1-8.73,51.06c-1.09,4.19-2.35,8.33-3.61,12.47s-2.68,8.24-4.19,12.3c-2.93,8.15-6.31,16.13-9.69,24.06s-6.85,15.8-9.6,23.9a128,128,0,0,0-5.86,24.88,150.29,150.29,0,0,0,2.22,51.2q-.9-3.1-1.66-6.26c-.48-2.1-.94-4.22-1.33-6.34-.79-4.26-1.4-8.55-1.8-12.87a130,130,0,0,1,.23-26,124.32,124.32,0,0,1,5.51-25.5c2.77-8.26,6.18-16.24,9.59-24.16s6.77-15.83,9.81-23.86S254.52,71.54,257,63.3A375,375,0,0,0,267.88,12.85Z"/><path class="cls-2" d="M92.91,65.74A290.31,290.31,0,0,1,122.84,108c2.18,3.73,4.22,7.55,6.26,11.37s3.93,7.72,5.74,11.66c3.69,7.84,6.94,15.87,10.16,23.87s6.32,16,10.11,23.68a128.31,128.31,0,0,0,13.44,21.74A150.55,150.55,0,0,0,206.33,235c-1.89-1-3.75-2.14-5.6-3.26s-3.65-2.32-5.43-3.55c-3.56-2.45-7-5-10.37-7.81a131.17,131.17,0,0,1-18.23-18.57,123.53,123.53,0,0,1-14.13-21.93c-3.89-7.79-7.12-15.84-10.3-23.85s-6.41-16-9.94-23.81-7.37-15.52-11.46-23.07A374.77,374.77,0,0,0,92.91,65.74Z"/><path class="cls-2" d="M12.68,230.33a288.51,288.51,0,0,1,51.05,8.73c4.19,1.09,8.33,2.35,12.48,3.61s8.23,2.69,12.3,4.19c8.15,2.93,16.12,6.31,24.06,9.69s15.79,6.86,23.89,9.6A128,128,0,0,0,161.34,272a150.35,150.35,0,0,0,51.21-2.22c-2.08.6-4.16,1.15-6.26,1.66s-4.22.94-6.35,1.33c-4.25.79-8.55,1.4-12.86,1.81a130.8,130.8,0,0,1-26-.24,123.67,123.67,0,0,1-25.5-5.51c-8.26-2.77-16.24-6.18-24.15-9.59s-15.83-6.76-23.86-9.81-16.19-5.75-24.42-8.21A375.7,375.7,0,0,0,12.68,230.33Z"/><path class="cls-2" d="M61.85,409A289.32,289.32,0,0,1,104.13,379c3.73-2.19,7.55-4.23,11.38-6.27s7.72-3.92,11.65-5.73c7.84-3.69,15.87-7,23.87-10.16s16-6.33,23.68-10.11a128,128,0,0,0,21.74-13.45,150.19,150.19,0,0,0,34.64-37.78q-1.58,2.83-3.25,5.6c-1.16,1.83-2.32,3.65-3.56,5.43q-3.66,5.35-7.81,10.37a131.09,131.09,0,0,1-18.56,18.23A124.31,124.31,0,0,1,176,349.31c-7.8,3.88-15.85,7.11-23.86,10.3s-16,6.4-23.81,9.93S112.8,376.92,105.24,381A374.3,374.3,0,0,0,61.85,409Z"/><path class="cls-2" d="M229.38,494.7a288.78,288.78,0,0,1,8.73-51.06c1.09-4.18,2.35-8.33,3.61-12.47s2.68-8.24,4.19-12.3c2.93-8.15,6.31-16.13,9.69-24.06s6.85-15.8,9.6-23.89A128,128,0,0,0,271.06,346a150.34,150.34,0,0,0-2.22-51.21q.9,3.1,1.66,6.26c.48,2.11.94,4.22,1.32,6.35q1.2,6.38,1.81,12.86a130,130,0,0,1-.23,26,124.32,124.32,0,0,1-5.51,25.5c-2.77,8.26-6.18,16.23-9.59,24.15s-6.77,15.83-9.81,23.86-5.75,16.18-8.21,24.42A373.83,373.83,0,0,0,229.38,494.7Z"/><path class="cls-2" d="M404.31,431.12a289.93,289.93,0,0,1-29.92-42.27c-2.19-3.74-4.23-7.56-6.27-11.38s-3.93-7.72-5.74-11.65C358.69,358,355.44,350,352.22,342s-6.32-16-10.1-23.68a128.61,128.61,0,0,0-13.45-21.74,150,150,0,0,0-37.78-34.64c1.89,1,3.75,2.13,5.6,3.25s3.65,2.32,5.43,3.55c3.56,2.45,7,5.05,10.37,7.82a130.57,130.57,0,0,1,18.23,18.56A123.89,123.89,0,0,1,344.65,317c3.89,7.8,7.12,15.85,10.3,23.86s6.41,16,9.94,23.81,7.37,15.51,11.46,23.07A374.65,374.65,0,0,0,404.31,431.12Z"/><path class="cls-2" d="M488.68,268.1a289.71,289.71,0,0,1-51.06-8.74c-4.18-1.09-8.33-2.35-12.47-3.61s-8.24-2.68-12.3-4.18c-8.15-2.94-16.13-6.32-24.06-9.7S373,235,364.9,232.27A128,128,0,0,0,340,226.41a150.34,150.34,0,0,0-51.21,2.22c2.07-.6,4.16-1.14,6.26-1.66s4.22-.94,6.35-1.32q6.38-1.2,12.86-1.81a130.8,130.8,0,0,1,26,.23,123.69,123.69,0,0,1,25.5,5.52c8.26,2.76,16.23,6.17,24.15,9.58s15.83,6.77,23.86,9.81,16.19,5.75,24.42,8.21A375.39,375.39,0,0,0,488.68,268.1Z"/><path class="cls-2" d="M432.39,93.16a290.31,290.31,0,0,1-42.28,29.93c-3.73,2.18-7.55,4.22-11.37,6.26s-7.72,3.93-11.66,5.74c-7.83,3.69-15.86,6.94-23.87,10.16s-16,6.32-23.68,10.1a129,129,0,0,0-21.74,13.45,150.38,150.38,0,0,0-34.64,37.78c1.05-1.89,2.14-3.75,3.26-5.6s2.32-3.65,3.55-5.43c2.45-3.56,5.05-7,7.81-10.37A131.17,131.17,0,0,1,296.34,167a123.53,123.53,0,0,1,21.93-14.13c7.79-3.89,15.84-7.12,23.85-10.3s16-6.41,23.81-9.94,15.52-7.37,23.08-11.46A375.51,375.51,0,0,0,432.39,93.16Z"/></g></svg>