<svg id="Layer_2" data-name="Layer 2" xmlns="http://www.w3.org/2000/svg" viewBox="0 0 381.86 489.4"><defs><style>.cls-1{fill:#f2f2f2;}</style></defs><path class="cls-1" d="M76.2,410.15a43.29,43.29,0,0,0,7.16-5.79q2.63-2.73,8.22-8.78t6.69-8a7,7,0,0,0,1.1-2.87,2.42,2.42,0,0,0-1.24-1.95,6.88,6.88,0,0,0-2.92-1.14c-1.25-.19-1.87-.55-1.87-1.08s.51-.84,1.54-.84c.22,0,.56,0,1-.05,1.15-.06,4.62-.09,10.39-.09q6,0,8.29.11t2.34.87c0,.53-.43.86-1.31,1a22.1,22.1,0,0,0-7.56,2.37q-3.21,1.75-10,8.24A132.74,132.74,0,0,0,86.5,404.67a24.06,24.06,0,0,1,9.11,1.52,13.54,13.54,0,0,1,6.14,5.25q2.44,3.74,4.23,12.64,3.09,15,11.09,15.61c1.19.09,1.78.41,1.78,1s-.28.68-.84.68l-4.31-.09c-6.36,0-10,.06-11,.18a16.06,16.06,0,0,1-3-6q-.67-3-1.85-10.35a49.71,49.71,0,0,0-3.39-11.94q-2.37-5.47-7.37-5.48a13.22,13.22,0,0,0-6.89,2.18q-3.55,2.18-4.12,3.23t-.56,12.39q0,7.95.49,9.83a4.9,4.9,0,0,0,2.16,2.95,9.84,9.84,0,0,0,4.47,1.35c1.12.13,1.68.47,1.68,1s-.39.79-1.17.79l-.56,0c-.87,0-4.06-.06-9.55-.06-6.62,0-10.36.06-11.24.18a6.52,6.52,0,0,1-1,.1q-1.08,0-1.08-.84c0-.5.44-.82,1.31-.94a7.19,7.19,0,0,0,3.73-1.38A4.77,4.77,0,0,0,66.44,436a92.44,92.44,0,0,0,.93-9.24q.59-7.87.59-13.11,0-6.93-.14-11.75c-.1-3.22-.28-6.72-.56-10.52s-.6-6.07-.94-6.83a4.09,4.09,0,0,0-1.45-1.78,12.16,12.16,0,0,0-4.4-1c-.78-.1-1.17-.38-1.17-.85,0-.68.71-1,2.15-1l3.79,0,16.63-.19q1.26,0,1.26.78a.69.69,0,0,1-.42.66,11.89,11.89,0,0,1-2.58.48,13,13,0,0,0-2.76.54,2.89,2.89,0,0,0-1.12,1.21,6.54,6.54,0,0,0-.56,3.16Q75.69,391.75,76.2,410.15Z"/><path class="cls-1" d="M158.55,378.82h2.17q5.22,10.73,14.43,36.66,5.92,16.62,8.13,20.39a8.49,8.49,0,0,0,7.09,4.19c1,.1,1.55.44,1.55,1s-.27.66-.8.66l-.65-.05c-2.87-.25-6.53-.37-11-.37q-10.2,0-13.11.32c-1,0-1.45-.27-1.45-.84q0-.6,1.08-.75a13.38,13.38,0,0,0,5.5-1.35,3.43,3.43,0,0,0,1.52-3.09q0-2-2.85-10.07l-2.76-8.05q-2.43,0-21.77.28-4.87,13-4.88,16.35a4.57,4.57,0,0,0,2.41,4.26,10.71,10.71,0,0,0,4.75,1.53q1.74.13,1.74,1.05c0,.25-.19.47-.56.68q-7.5-.31-9-.32-7.86,0-10.58.18-1.5,0-1.5-.84c0-.5.44-.81,1.31-.93q5.38-.71,8.24-7.31t8.9-23.74Q152,393.11,158.55,378.82ZM156.69,389a237.23,237.23,0,0,0-10.18,25.84q4.83-.22,6.93-.23l13.16.23c-1.15-3.24-2.78-7.55-4.86-12.92Q157.9,392.35,156.69,389Z"/><path class="cls-1" d="M224.77,442.36H222q-2.2-7.08-6.93-19.29l-8.85-22.8q-4.12-10.59-5.74-13.21a10.48,10.48,0,0,0-3.16-3.55,10.05,10.05,0,0,0-4.35-1.18q-1.17-.09-1.17-.84c0-.59.39-.89,1.17-.89h24.53c1.53,0,2.29.27,2.29.8,0,.69-.49,1-1.49,1q-6.18,0-6.18,5.29a22.42,22.42,0,0,0,.56,4,55.16,55.16,0,0,0,1.94,6.78q1.38,4,6,16.51t5.83,15.33l10-27.76q4.31-11.81,4.3-14.84,0-4.92-6.08-5.44c-.82-.06-1.22-.35-1.22-.88a.65.65,0,0,1,.44-.68,11.09,11.09,0,0,1,2.6-.17h15.64a14.66,14.66,0,0,1,2.55.12.61.61,0,0,1,.45.68c0,.56-.61.93-1.83,1.12a8.32,8.32,0,0,0-5.27,2.55,31.12,31.12,0,0,0-3.37,4.87q-1.6,2.83-8.64,22.55Q233.52,419.42,224.77,442.36Z"/><path class="cls-1" d="M286.05,378.82h2.17q5.22,10.73,14.43,36.66,5.93,16.62,8.13,20.39a8.49,8.49,0,0,0,7.09,4.19c1,.1,1.55.44,1.55,1s-.27.66-.8.66l-.65-.05c-2.87-.25-6.53-.37-11-.37q-10.2,0-13.11.32c-1,0-1.45-.27-1.45-.84q0-.6,1.08-.75a13.38,13.38,0,0,0,5.5-1.35,3.43,3.43,0,0,0,1.52-3.09q0-2-2.85-10.07l-2.76-8.05q-2.43,0-21.77.28-4.87,13-4.88,16.35a4.57,4.57,0,0,0,2.41,4.26,10.71,10.71,0,0,0,4.75,1.53q1.74.13,1.74,1.05c0,.25-.19.47-.56.68q-7.5-.31-9-.32c-5.25,0-8.77.06-10.58.18q-1.5,0-1.5-.84c0-.5.44-.81,1.31-.93q5.39-.71,8.24-7.31t8.9-23.74Q279.5,393.11,286.05,378.82ZM284.19,389A237.23,237.23,0,0,0,274,414.87q4.83-.22,6.93-.23l13.16.23Q292.36,410,289.24,402,285.4,392.35,284.19,389Z"/><path class="cls-1" d="M70.93,447.48q2.52,5.47,4.7,9.67c1.74,3.35,3.11,6.13,4.08,8.35a60.44,60.44,0,0,0,3.41,6.57,206.66,206.66,0,0,0,12-24.59l9.94,0c.35.05.52.2.52.46s-.2.4-.6.43a6.18,6.18,0,0,0-3.53,1.06,4.44,4.44,0,0,0-1.1,2.81q-.21,2-.41,7.34t-.2,8.94q0,6.87.1,8a2.65,2.65,0,0,0,.85,1.81,5.75,5.75,0,0,0,2.92,1q.63.11.63.48c0,.25-.26.37-.78.37l-9.71,0H91.2c-.57,0-.85-.14-.85-.4s.19-.38.58-.43a6.79,6.79,0,0,0,2.78-.77,3.08,3.08,0,0,0,1-1.79,34.36,34.36,0,0,0,.34-6.41l.48-12,.25-5.92c0-.45-.07-.67-.2-.67s-.37.13-.51.4L90.15,462q-4.75,9.38-5.83,12l-1.55,3.78a12.49,12.49,0,0,1-.87,1.88.47.47,0,0,1-.35.17c-.2,0-.37-.22-.5-.65a102.09,102.09,0,0,0-4.62-9.85q-2.18-4.68-5.22-10.67t-3.28-6.26c-.17-.18-.29-.26-.38-.26s-.25.21-.25.62L67,467.83l-.08,5c0,2.64.37,4.37,1.09,5.19a4,4,0,0,0,3.11,1.22c.86,0,1.3.19,1.3.55s-.21.4-.63.4l-.52,0-1.62,0-3.52,0q-2.31,0-5.92.25c-.2-.14-.3-.27-.3-.4,0-.34.29-.51.87-.53a4.44,4.44,0,0,0,3.67-1.65c.78-1,1.18-3.4,1.18-7l0-4.39L66,455.25c0-2.6-.39-4.38-1.15-5.34a4.94,4.94,0,0,0-3.37-1.71c-.64-.08-.95-.25-.95-.51s.23-.44.7-.44l.89,0Z"/><path class="cls-1" d="M124.23,446.83h1.15q2.79,5.71,7.7,19.55,3.16,8.87,4.34,10.88a4.52,4.52,0,0,0,3.78,2.23c.55.05.82.23.82.55s-.14.35-.42.35l-.35,0c-1.53-.14-3.48-.2-5.84-.2-3.63,0-6,.05-7,.17-.51,0-.77-.15-.77-.45s.19-.35.57-.4a7,7,0,0,0,2.94-.72,1.82,1.82,0,0,0,.81-1.65,24.15,24.15,0,0,0-1.52-5.37L129,467.46q-1.31,0-11.61.15c-1.74,4.61-2.6,7.51-2.6,8.72A2.43,2.43,0,0,0,116,478.6a5.82,5.82,0,0,0,2.54.82c.61.05.92.23.92.56q0,.19-.3.36c-2.66-.12-4.27-.17-4.82-.17-2.8,0-4.68,0-5.64.1-.54,0-.8-.15-.8-.45s.23-.44.7-.5c1.91-.25,3.38-1.55,4.39-3.9s2.6-6.57,4.75-12.66Q120.74,454.45,124.23,446.83Zm-1,5.44a125.49,125.49,0,0,0-5.42,13.79c1.71-.09,2.94-.13,3.69-.13l7,.13q-.93-2.6-2.59-6.89C124.56,455.75,123.66,453.46,123.23,452.27Z"/><path class="cls-1" d="M173.69,480.29l-1.4,0c-.61,0-1.73,0-3.35-.09s-5-.08-10.07-.08h-6.35q-.35,0-2.55.12c-1.46.08-2.35.13-2.67.13-1.27,0-1.9-.17-1.9-.5s.25-.41.75-.43a5.41,5.41,0,0,0,3.37-1,4.7,4.7,0,0,0,1.3-2.54,64.72,64.72,0,0,0,.35-9l0-8.95a32.05,32.05,0,0,0-.38-6.07,4.31,4.31,0,0,0-1.6-2.63,5.13,5.13,0,0,0-2.73-1c-.54-.05-.8-.23-.8-.54s.24-.46.72-.46l.65,0c2.65.17,5.74.25,9.29.25l4.39-.07c.45,0,.68.17.68.5s-.24.45-.73.45a5.71,5.71,0,0,0-3,.7,3.55,3.55,0,0,0-1.57,1.61,10.58,10.58,0,0,0-.39,3.56l-.2,11.81.05,6.59a17.94,17.94,0,0,0,.27,4,3.5,3.5,0,0,0,1.08,1.67,4.59,4.59,0,0,0,3,.73l4.47-.15a10.33,10.33,0,0,0,6.15-3.34,17.27,17.27,0,0,0,3.62-5.15c.18-.43.41-.65.67-.65s.42.2.42.6-.24,2.14-.71,5S173.81,479.87,173.69,480.29Z"/><path class="cls-1" d="M189.28,448.85c-1.3-.06-2.21-.1-2.75-.1q-5.39,0-7.82,2.26a8.79,8.79,0,0,0-2.82,4,.64.64,0,0,1-1.14.38,69.07,69.07,0,0,1,1-8l1.53,0c1.29,0,3,.07,5.22.2,2.34.14,5.94.2,10.78.2s8.19-.05,9.69-.17,3.24-.2,5.62-.2a34,34,0,0,1,.4,3.74c.1,1.49.2,2.53.3,3.13,0,.13,0,.27,0,.42,0,.4-.17.6-.52.6a.72.72,0,0,1-.53-.21,11.73,11.73,0,0,1-1-1.41,11.54,11.54,0,0,0-2.7-3.06,7.26,7.26,0,0,0-3.12-1.34,57.78,57.78,0,0,0-7-.4q-.3,3.78-.3,8.62,0,16,.68,18.9t4.91,2.87c.68,0,1,.14,1,.43s-.32.5-1,.5H184.46q-.6,0-.6-.48c0-.31.39-.47,1.18-.47a4.3,4.3,0,0,0,4.58-4.12c.12-1.27.19-4.92.19-11Q189.81,456.39,189.28,448.85Z"/><path class="cls-1" d="M213.31,463.61a16.44,16.44,0,0,1,2.05-7.4,17.35,17.35,0,0,1,6-6.66,15.62,15.62,0,0,1,8.88-2.62,14.79,14.79,0,0,1,11.42,4.94,16.27,16.27,0,0,1,4.51,11.29,17.28,17.28,0,0,1-5,12.1,15.83,15.83,0,0,1-12,5.35,15.07,15.07,0,0,1-11.27-4.69Q213.31,471.23,213.31,463.61Zm5.57-.81a30,30,0,0,0,1.25,8.36,11.24,11.24,0,0,0,3.91,6.22,9.57,9.57,0,0,0,5.71,1.94q4.92,0,7.87-4.79a20.65,20.65,0,0,0,3-11.08,19.11,19.11,0,0,0-3-10.71q-3-4.61-7.88-4.61a8.25,8.25,0,0,0-6.11,2.46,14.75,14.75,0,0,0-3.57,5.88A20.44,20.44,0,0,0,218.88,462.8Z"/><path class="cls-1" d="M270.5,463.42a12.81,12.81,0,0,1,4.82,3.15,11,11,0,0,1,2,5.06c.56,3,1.34,5,2.34,6a5.52,5.52,0,0,0,3.9,1.65c.45,0,.68.19.68.48s-.26.44-.78.44q-7,0-8.48-.46c-1-.31-1.72-2-2.21-5.11a39.05,39.05,0,0,0-1.41-6.6,6.3,6.3,0,0,0-2.34-3.2,9,9,0,0,0-5-1.11A18.42,18.42,0,0,0,261,464c-.09,1.05-.13,2.14-.13,3.27q0,6.4.18,8.29a4.23,4.23,0,0,0,1.06,2.74,4.28,4.28,0,0,0,3,.91c.6,0,.9.16.9.44s-.37.49-1.1.49H252.55c-.72,0-1.08-.17-1.08-.49s.29-.44.85-.44a4.48,4.48,0,0,0,2.64-.57,3.82,3.82,0,0,0,1.16-1.79,15.26,15.26,0,0,0,.42-4.38l-.05-5.08,0-7.77a74.52,74.52,0,0,0-.26-7.85,4.62,4.62,0,0,0-.94-2.59,6.27,6.27,0,0,0-3.12-1c-.35-.05-.53-.19-.53-.43s.35-.4,1.05-.4L267.5,447q6.12,0,8.88,2.35A7.38,7.38,0,0,1,278,459a7,7,0,0,1-2.63,2.57A30.77,30.77,0,0,1,270.5,463.42Zm-9.46-.63a36.25,36.25,0,0,0,7.19-.68,7.6,7.6,0,0,0,4.08-2.52A6.81,6.81,0,0,0,274,455a7.16,7.16,0,0,0-1.88-4.92q-1.86-2.1-6-2.1a23.28,23.28,0,0,0-5,.6q-.3,6.87-.3,10.94Q260.86,460.89,261,462.79Z"/><path class="cls-1" d="M285.94,463.61a16.44,16.44,0,0,1,2.05-7.4,17.35,17.35,0,0,1,6-6.66,15.62,15.62,0,0,1,8.88-2.62,14.8,14.8,0,0,1,11.42,4.94,16.32,16.32,0,0,1,4.51,11.29,17.28,17.28,0,0,1-5,12.1,15.83,15.83,0,0,1-12,5.35,15.07,15.07,0,0,1-11.27-4.69Q285.94,471.23,285.94,463.61Zm5.57-.81a29.59,29.59,0,0,0,1.25,8.36,11.24,11.24,0,0,0,3.91,6.22,9.55,9.55,0,0,0,5.71,1.94q4.92,0,7.87-4.79a20.65,20.65,0,0,0,3-11.08,19.11,19.11,0,0,0-3-10.71q-3-4.61-7.88-4.61a8.25,8.25,0,0,0-6.11,2.46,14.75,14.75,0,0,0-3.57,5.88A20.44,20.44,0,0,0,291.51,462.8Z"/><path class="cls-1" d="M174.43,166a81.4,81.4,0,0,1-3-12.54,87.29,87.29,0,0,1,.05-25.77,102.43,102.43,0,0,1,7-24.94,86.41,86.41,0,0,1,5.92-11.62c2.27-3.75,5-7.13,7.16-10.61a55,55,0,0,0,5.15-11.26,81.3,81.3,0,0,0,3.19-12.18c1.61-8.36,3-16.84,4.75-25.21q2.16-11.5,4.56-23V8.79a144,144,0,0,1-11.15,20.63,133.31,133.31,0,0,1-16.26,20.21c-2.29,2.44-4.46,4.74-6.48,7.24C159.78,76.06,158.12,100,157.4,110.16a102.73,102.73,0,0,0,3.1,33.29,103.22,103.22,0,0,0,10.8,25.07c1.47,2.9,10.19,16.11,18.09,24-.2-.3-.41-.64-.61-1a81.73,81.73,0,0,1-9.27-13.74A74.27,74.27,0,0,1,174.43,166Z"/><path class="cls-1" d="M195.22,127.9c1.27-1.61,2.61-3.2,4-4.87,5.13-6,14.39-17.47,18.38-27.48,2.65-6.25,6.28-14.81,5.79-25.6-.33-7.28-2.3-11.63-4.79-17.14a104.6,104.6,0,0,1-5.18-13.26A100.13,100.13,0,0,1,209.23,9q-1,5.13-1.85,10.3l-2,12.66q-.9,6.36-1.65,12.71c-.48,4.25-.86,8.49-1.38,12.77a77.7,77.7,0,0,1-2.54,12.78c-.64,2.09-1.37,4.15-2.21,6.19a46.58,46.58,0,0,1-3,5.92c-2.38,3.78-5.11,7-7.3,10.54a108.08,108.08,0,0,0-5.93,11.1,105.82,105.82,0,0,0-7.79,24,81.9,81.9,0,0,0-1,25.29,75.2,75.2,0,0,0,15.76,37.44C177,172.94,181.83,144.66,195.22,127.9Z"/><path class="cls-1" d="M160.07,184.33a80.82,80.82,0,0,1-11-6.76,87,87,0,0,1-18.2-18.26,102.42,102.42,0,0,1-12.68-22.58,86.32,86.32,0,0,1-4-12.4c-1-4.26-1.48-8.61-2.44-12.57a54.77,54.77,0,0,0-4.32-11.6,80.49,80.49,0,0,0-6.36-10.87c-4.77-7-9.76-14.05-14.46-21.18q-6.61-9.66-13-19.46l-.08-.08A142.21,142.21,0,0,1,80.22,71,133.23,133.23,0,0,1,83,96.83c.1,3.34.2,6.5.53,9.71,2.57,24.56,18.29,42.64,25,50.35a102.3,102.3,0,0,0,25.73,21.36,103.52,103.52,0,0,0,25.36,10.09c3.09,1,18.6,4.19,29.75,4.16l-1.11-.24A82.72,82.72,0,0,1,172,189.09,73.19,73.19,0,0,1,160.07,184.33Z"/><path class="cls-1" d="M147.84,142.7c-.25-2-.42-4.1-.6-6.3-.59-7.84-2.17-22.52-6.44-32.42-2.54-6.29-6-14.91-14-22.2-5.37-4.91-9.84-6.59-15.5-8.73a104.61,104.61,0,0,1-13-5.72,99.84,99.84,0,0,1-24.57-18.6q2.91,4.35,6,8.59L87.2,67.69Q91,72.82,95,77.84c2.65,3.35,5.39,6.62,8,10a77.19,77.19,0,0,1,7.24,10.84,64.38,64.38,0,0,1,2.81,5.93,46.24,46.24,0,0,1,2,6.33c1,4.37,1.34,8.57,2.29,12.63a108.61,108.61,0,0,0,3.65,12,106.41,106.41,0,0,0,11.49,22.51,82,82,0,0,0,17.16,18.6,75.24,75.24,0,0,0,37.62,15.33C166.8,187.43,150.21,164,147.84,142.7Z"/><path class="cls-1" d="M190,145.47a2.78,2.78,0,0,1-.23-.21l.22.21Z"/><polygon class="cls-1" points="190.31 145.74 190.31 145.74 190.31 145.74 190.31 145.74"/><path class="cls-1" d="M187.14,142.4c1,1.14,2.08,2.25,3.17,3.34h0c-1.26-1.26-2.46-2.57-3.63-3.91Z"/><path class="cls-1" d="M162.88,207.43a81.52,81.52,0,0,1-12.53,3,87,87,0,0,1-25.78,0,102.88,102.88,0,0,1-24.94-7A86.87,86.87,0,0,1,88,197.44c-3.76-2.27-7.14-5-10.62-7.17a54.77,54.77,0,0,0-11.26-5.14A79,79,0,0,0,54,181.94c-8.35-1.61-16.83-3-25.2-4.75q-11.52-2.16-23-4.56H5.68a143.38,143.38,0,0,1,20.63,11.14A133.31,133.31,0,0,1,46.52,200c2.44,2.3,4.75,4.46,7.25,6.49,19.18,15.56,43.08,17.22,53.28,17.93a102.45,102.45,0,0,0,33.29-3.09,103.22,103.22,0,0,0,25.07-10.8c2.9-1.47,16.12-10.19,24-18.09l-.95.61a83,83,0,0,1-13.75,9.27A75.2,75.2,0,0,1,162.88,207.43Z"/><path class="cls-1" d="M124.79,186.64c-1.61-1.27-3.19-2.61-4.87-4-6-5.13-17.46-14.4-27.47-18.38-6.26-2.65-14.82-6.28-25.61-5.79-7.27.33-11.63,2.3-17.14,4.79a105.52,105.52,0,0,1-13.26,5.18,100.13,100.13,0,0,1-30.53,4.22q5.15,1,10.31,1.84l12.66,2q6.35.92,12.7,1.65c4.25.49,8.5.87,12.77,1.39a77.49,77.49,0,0,1,12.78,2.54,63.38,63.38,0,0,1,6.19,2.21,44.69,44.69,0,0,1,5.92,3c3.78,2.38,7,5.11,10.55,7.3a106.9,106.9,0,0,0,11.09,5.93,105.82,105.82,0,0,0,24,7.79,82.21,82.21,0,0,0,25.29,1,75.25,75.25,0,0,0,37.44-15.76C169.84,204.86,141.55,200,124.79,186.64Z"/><path class="cls-1" d="M181.22,221.79a81.76,81.76,0,0,1-6.75,11A87,87,0,0,1,156.21,251a102.51,102.51,0,0,1-22.58,12.69,88.13,88.13,0,0,1-12.41,4c-4.26,1-8.6,1.47-12.57,2.43a55.36,55.36,0,0,0-11.6,4.33,79.78,79.78,0,0,0-10.86,6.36c-7,4.77-14,9.76-21.19,14.46q-9.66,6.62-19.46,13l-.08.09a142.53,142.53,0,0,1,22.47-6.71,132.52,132.52,0,0,1,25.79-2.8c3.35-.1,6.51-.2,9.71-.53,24.57-2.57,42.64-18.29,50.36-25a102.61,102.61,0,0,0,21.35-25.73,103.52,103.52,0,0,0,10.09-25.36c1-3.09,4.19-18.6,4.16-29.75-.07.35-.16.73-.24,1.11A82.13,82.13,0,0,1,186,209.85,72.65,72.65,0,0,1,181.22,221.79Z"/><path class="cls-1" d="M139.59,234c-2,.25-4.1.42-6.29.6-7.84.59-22.53,2.17-32.42,6.43-6.3,2.55-14.92,6-22.21,14-4.9,5.37-6.59,9.84-8.73,15.5a106.53,106.53,0,0,1-5.71,13,100.28,100.28,0,0,1-18.6,24.57q4.35-2.91,8.58-6l10.37-7.54q5.13-3.86,10.15-7.82c3.35-2.65,6.62-5.39,10-8a77.19,77.19,0,0,1,10.84-7.24q2.88-1.55,5.93-2.82a47.75,47.75,0,0,1,6.34-2c4.36-1,8.56-1.34,12.62-2.29A107.28,107.28,0,0,0,155,249.27a81.77,81.77,0,0,0,18.6-17.16,75.15,75.15,0,0,0,15.33-37.62C184.33,215.06,160.91,231.65,139.59,234Z"/><path class="cls-1" d="M142.37,191.86a2,2,0,0,0-.21.23l.2-.22Z"/><polygon class="cls-1" points="142.63 191.55 142.63 191.55 142.63 191.55 142.63 191.55"/><path class="cls-1" d="M139.29,194.72c1.14-1,2.26-2.08,3.34-3.17h0c-1.26,1.25-2.57,2.46-3.91,3.63Z"/><path class="cls-1" d="M204.28,219a81.55,81.55,0,0,1,3,12.53,86.69,86.69,0,0,1,0,25.78,102.85,102.85,0,0,1-7,24.94,87.59,87.59,0,0,1-5.92,11.62c-2.28,3.75-5.05,7.13-7.17,10.61A55.33,55.33,0,0,0,182,315.73a80.09,80.09,0,0,0-3.18,12.18c-1.61,8.35-3,16.84-4.76,25.21q-2.14,11.5-4.55,23v.11a142.4,142.4,0,0,1,11.14-20.63,133.31,133.31,0,0,1,16.26-20.21c2.29-2.44,4.46-4.74,6.49-7.24,15.55-19.19,17.22-43.09,17.93-53.29a102.18,102.18,0,0,0-3.1-33.29,103.69,103.69,0,0,0-10.79-25.07c-1.47-2.9-10.19-16.11-18.1-24,.2.3.41.63.61,1a82.39,82.39,0,0,1,9.28,13.74A74.22,74.22,0,0,1,204.28,219Z"/><path class="cls-1" d="M183.49,257.08c-1.26,1.61-2.6,3.19-4,4.87-5.12,6-14.39,17.46-18.37,27.47-2.65,6.26-6.28,14.82-5.79,25.61.33,7.27,2.29,11.63,4.78,17.14a104,104,0,0,1,5.18,13.26A99.83,99.83,0,0,1,169.48,376c.69-3.42,1.29-6.86,1.85-10.3l2-12.67c.6-4.23,1.16-8.46,1.65-12.7s.87-8.5,1.38-12.77a76.5,76.5,0,0,1,2.55-12.78q.94-3.14,2.2-6.19a45.92,45.92,0,0,1,3-5.92c2.39-3.78,5.11-7,7.31-10.55A107.39,107.39,0,0,0,205.18,257a82.21,82.21,0,0,0,1-25.29,75.38,75.38,0,0,0-15.76-37.44C201.71,212,196.89,240.32,183.49,257.08Z"/><path class="cls-1" d="M218.65,200.65a81.76,81.76,0,0,1,11,6.75,87,87,0,0,1,18.19,18.27,102.62,102.62,0,0,1,12.69,22.57,86.82,86.82,0,0,1,4,12.41c1.05,4.26,1.48,8.6,2.44,12.57a55.88,55.88,0,0,0,4.32,11.6,80.83,80.83,0,0,0,6.36,10.86c4.77,7.05,9.77,14.05,14.47,21.19q6.6,9.66,13,19.46l.08.08a143.27,143.27,0,0,1-6.71-22.47,133.16,133.16,0,0,1-2.79-25.79c-.1-3.35-.2-6.51-.54-9.71-2.56-24.56-18.28-42.64-25-50.36a97.19,97.19,0,0,0-51.1-31.44c-3.09-1-18.59-4.19-29.75-4.16l1.11.24a82.23,82.23,0,0,1,16.28,3.17A73.91,73.91,0,0,1,218.65,200.65Z"/><path class="cls-1" d="M230.88,242.28c.24,2,.42,4.1.6,6.29.58,7.84,2.17,22.53,6.43,32.42,2.55,6.3,6,14.92,14,22.21,5.38,4.9,9.85,6.59,15.5,8.73a104,104,0,0,1,13,5.72A99.86,99.86,0,0,1,305,336.24c-1.93-2.9-3.93-5.75-6-8.58l-7.53-10.37q-3.86-5.13-7.82-10.15c-2.66-3.35-5.4-6.62-8.05-10a77.19,77.19,0,0,1-7.24-10.84q-1.55-2.88-2.82-5.93a45,45,0,0,1-2-6.34c-1-4.36-1.34-8.56-2.3-12.62a106.82,106.82,0,0,0-15.13-34.54A82.22,82.22,0,0,0,229,208.26a75.19,75.19,0,0,0-37.62-15.33C211.91,197.55,228.5,221,230.88,242.28Z"/><path class="cls-1" d="M188.71,239.51l.24.2-.23-.2Z"/><polygon class="cls-1" points="188.41 239.24 188.41 239.24 188.41 239.24 188.41 239.24"/><path class="cls-1" d="M191.58,242.58c-1-1.14-2.09-2.25-3.17-3.34h0c1.25,1.26,2.45,2.57,3.63,3.91Z"/><path class="cls-1" d="M215.83,177.55a82.85,82.85,0,0,1,12.54-3,87.36,87.36,0,0,1,25.78.05,102.35,102.35,0,0,1,24.93,7,87,87,0,0,1,11.62,5.92c3.75,2.27,7.13,5,10.61,7.17a55.26,55.26,0,0,0,11.26,5.14A80.12,80.12,0,0,0,324.75,203c8.36,1.61,16.84,3,25.21,4.75q11.51,2.16,23,4.56H373a142.91,142.91,0,0,1-20.63-11.15,131.76,131.76,0,0,1-20.22-16.26c-2.44-2.29-4.74-4.46-7.24-6.48-19.19-15.56-43.08-17.22-53.29-17.93a97.05,97.05,0,0,0-58.36,13.89c-2.9,1.47-16.11,10.19-24,18.09l1-.61A83,83,0,0,1,204,182.63,74.67,74.67,0,0,1,215.83,177.55Z"/><path class="cls-1" d="M253.92,198.34c1.61,1.27,3.2,2.61,4.88,4,6,5.13,17.46,14.39,27.47,18.38,6.25,2.65,14.81,6.28,25.61,5.79,7.27-.33,11.62-2.3,17.13-4.79a104.6,104.6,0,0,1,13.26-5.18,100.13,100.13,0,0,1,30.53-4.22q-5.13-1-10.3-1.84l-12.66-2q-6.34-.9-12.71-1.65c-4.24-.48-8.49-.86-12.77-1.38a77.7,77.7,0,0,1-12.78-2.54c-2.09-.64-4.15-1.37-6.19-2.21a45.31,45.31,0,0,1-5.92-3c-3.78-2.38-7-5.11-10.54-7.3a108.08,108.08,0,0,0-11.1-5.93,105.66,105.66,0,0,0-24-7.79,81.9,81.9,0,0,0-25.29-1,75.2,75.2,0,0,0-37.44,15.76C208.88,180.12,237.17,185,253.92,198.34Z"/><path class="cls-1" d="M197.49,163.19a80.82,80.82,0,0,1,6.76-11A87,87,0,0,1,222.51,134a102.65,102.65,0,0,1,22.58-12.68,86.32,86.32,0,0,1,12.4-4c4.26-1,8.61-1.48,12.57-2.43a55.15,55.15,0,0,0,11.6-4.33,80.49,80.49,0,0,0,10.87-6.36c7-4.77,14.05-9.76,21.18-14.46q9.66-6.62,19.46-13a.3.3,0,0,0,.08-.08,142.41,142.41,0,0,1-22.46,6.71,132.6,132.6,0,0,1-25.8,2.8c-3.34.1-6.5.2-9.7.53-24.57,2.57-42.64,18.29-50.36,25a97.23,97.23,0,0,0-31.45,51.09c-1,3.09-4.18,18.6-4.16,29.75.07-.35.16-.73.25-1.11a82.11,82.11,0,0,1,3.16-16.27A74.1,74.1,0,0,1,197.49,163.19Z"/><path class="cls-1" d="M239.12,151c2-.25,4.11-.42,6.3-.6,7.84-.59,22.52-2.17,32.42-6.43,6.29-2.55,14.91-6,22.2-14,4.91-5.37,6.6-9.84,8.73-15.5a104.61,104.61,0,0,1,5.72-13,99.84,99.84,0,0,1,18.6-24.57q-4.35,2.91-8.59,6l-10.37,7.54Q309,94.18,304,98.14c-3.35,2.65-6.62,5.39-10,8a77.09,77.09,0,0,1-10.83,7.24c-1.93,1-3.9,2-5.94,2.81a46.24,46.24,0,0,1-6.33,2c-4.37,1-8.57,1.34-12.62,2.29a107.28,107.28,0,0,0-34.54,15.14,81.81,81.81,0,0,0-18.61,17.16,75.33,75.33,0,0,0-15.33,37.62C194.39,169.92,217.8,153.33,239.12,151Z"/><path class="cls-1" d="M236.35,193.12l.21-.23-.2.22Z"/><polygon class="cls-1" points="236.09 193.43 236.09 193.43 236.09 193.43 236.09 193.43"/><path class="cls-1" d="M239.42,190.26c-1.13,1-2.25,2.08-3.33,3.17h0c1.26-1.26,2.56-2.46,3.9-3.63Z"/></svg>